<?xml version="1.0" encoding="utf-8"?>
<!-- Generator: Adobe Illustrator 23.1.0, SVG Export Plug-In . SVG Version: 6.00 Build 0)  -->
<svg version="1.1" id="Layer_1" xmlns="http://www.w3.org/2000/svg" xmlns:xlink="http://www.w3.org/1999/xlink" x="0px" y="0px"
	 viewBox="0 0 228.7 39.1" style="enable-background:new 0 0 228.7 39.1;" xml:space="preserve">
<style type="text/css">
	.st0{fill:#FFFFFF;}
</style>
<g>
	<path class="st0" d="M24.4,34.9c-0.5,0.4-1.3,0.8-2.3,1.1c-1.1,0.3-2.2,0.5-3.5,0.5c-1.5,0-2.8-0.2-3.9-0.7
		c-1.1-0.4-1.8-1.1-2.2-1.9c-0.4-0.8-0.9-1.9-1.5-3.2c-0.6-1.3-1.2-2.8-1.8-4.4S7.9,23,7.3,21.2c-0.7-1.8-1.3-3.7-1.9-5.5
		c-0.6-1.9-1.2-3.7-1.7-5.5C3.1,8.3,2.6,6.6,2.2,5c0.5-0.5,1.2-1,2.2-1.4S6.4,3,7.5,3c1.3,0,2.4,0.3,3.3,0.8
		c0.8,0.6,1.5,1.6,1.9,3.1c1,3.5,2,6.9,2.9,10.1c1,3.2,2,6.6,3.1,10.1H19c1-3.4,2-7.1,3-11.1c1-4,2-8,2.9-11.9
		c0.6-0.3,1.3-0.6,2.1-0.8C27.7,3.1,28.6,3,29.5,3c1.3,0,2.5,0.3,3.4,0.9s1.4,1.6,1.4,2.9c0,0.8-0.2,1.9-0.6,3.5
		c-0.4,1.5-0.9,3.2-1.5,5.1c-0.6,1.9-1.3,3.9-2,5.9c-0.7,2.1-1.5,4-2.2,5.8C27.3,29,26.6,30.6,26,32C25.3,33.4,24.8,34.3,24.4,34.9z
		"/>
	<path class="st0" d="M44.5,8.2c0-1.5,0.4-2.8,1.4-3.7c0.9-0.9,2.1-1.4,3.7-1.4h17.8c0.3,0.4,0.5,0.9,0.7,1.6
		c0.2,0.6,0.3,1.3,0.3,2.1c0,1.4-0.3,2.3-0.9,2.9c-0.6,0.6-1.4,0.9-2.3,0.9H53.6v5h12.2c0.3,0.4,0.5,0.9,0.7,1.5
		c0.2,0.6,0.3,1.3,0.3,2c0,1.4-0.3,2.3-0.9,2.9c-0.6,0.6-1.4,0.9-2.3,0.9h-9.9v5.7h13.9c0.3,0.4,0.5,0.9,0.7,1.6
		c0.2,0.6,0.3,1.3,0.3,2.1c0,1.4-0.3,2.3-0.9,2.9c-0.6,0.6-1.4,0.9-2.3,0.9H49.5c-1.5,0-2.8-0.4-3.7-1.4c-0.9-0.9-1.4-2.1-1.4-3.7
		V8.2z"/>
	<path class="st0" d="M109.1,34.8c-0.5,0.5-1.2,0.9-2.2,1.2c-1,0.3-2.1,0.4-3.4,0.4c-1.3,0-2.6-0.2-3.8-0.6
		c-1.2-0.4-2.2-1.4-2.9-2.9L91.5,22c-0.5-1.1-1-2.2-1.5-3.2c-0.4-1-0.9-2.1-1.4-3.4l-0.3,0.1c0.1,1.9,0.2,3.9,0.2,5.9c0,2,0,4,0,5.9
		v8.4c-0.4,0.1-1,0.2-1.8,0.3c-0.8,0.1-1.6,0.2-2.4,0.2c-0.8,0-1.5-0.1-2.1-0.2c-0.6-0.1-1.1-0.3-1.5-0.6c-0.4-0.3-0.7-0.8-0.9-1.3
		c-0.2-0.6-0.3-1.3-0.3-2.2v-27c0.5-0.7,1.3-1.3,2.3-1.6c1-0.4,2.2-0.5,3.3-0.5c1.3,0,2.6,0.2,3.8,0.6c1.2,0.4,2.2,1.4,2.9,2.8
		l5.4,10.9c0.5,1.1,1,2.2,1.5,3.2c0.4,1,0.9,2.1,1.4,3.4l0.3-0.1c-0.1-1.9-0.2-3.9-0.3-5.8c0-1.9-0.1-3.9-0.1-5.8V3.2
		c0.4-0.1,1-0.2,1.8-0.3c0.8-0.1,1.6-0.2,2.4-0.2c1.6,0,2.8,0.3,3.6,0.8c0.8,0.6,1.2,1.7,1.2,3.5V34.8z"/>
	<path class="st0" d="M134,36.8c-0.6,0-1.3,0-2.1-0.1c-0.8,0-1.6-0.1-2.5-0.2c-0.8-0.1-1.7-0.2-2.5-0.4c-0.8-0.2-1.6-0.4-2.3-0.7
		c-2-0.8-3-2.1-3-3.9V6.3c0-0.8,0.2-1.3,0.6-1.8c0.4-0.4,1-0.7,1.7-1c1.5-0.5,3.2-0.8,4.9-1c1.7-0.2,3.3-0.2,4.6-0.2
		c2.8,0,5.4,0.3,7.6,1c2.3,0.7,4.2,1.7,5.9,3.2c1.6,1.4,2.9,3.2,3.8,5.4c0.9,2.2,1.4,4.7,1.4,7.7c0,2.9-0.4,5.4-1.3,7.5
		c-0.9,2.1-2.1,3.9-3.7,5.4c-1.6,1.5-3.5,2.5-5.8,3.3C139.1,36.4,136.7,36.8,134,36.8z M130.9,28.9c0.4,0.1,0.9,0.1,1.5,0.2
		c0.6,0.1,1.1,0.1,1.6,0.1c1.2,0,2.3-0.2,3.4-0.5c1-0.4,1.9-0.9,2.6-1.7c0.7-0.8,1.3-1.7,1.7-2.9c0.4-1.2,0.6-2.7,0.6-4.3
		c0-3.2-0.8-5.7-2.3-7.3c-1.5-1.6-3.5-2.5-6-2.5c-0.5,0-1,0-1.5,0.1c-0.5,0-1.1,0.1-1.6,0.2V28.9z"/>
	<path class="st0" d="M188.6,35.7c-0.4,0.1-1,0.2-1.9,0.3c-0.8,0.1-1.7,0.2-2.5,0.2c-0.8,0-1.6-0.1-2.2-0.2
		c-0.6-0.1-1.2-0.4-1.6-0.7c-0.4-0.3-0.8-0.8-1-1.4c-0.2-0.6-0.3-1.3-0.3-2.3V3.2c0.4-0.1,1-0.2,1.9-0.3c0.9-0.1,1.7-0.2,2.5-0.2
		c0.8,0,1.6,0.1,2.2,0.2c0.6,0.1,1.2,0.4,1.6,0.7c0.4,0.3,0.8,0.8,1,1.4c0.2,0.6,0.3,1.3,0.3,2.3V35.7z"/>
	<path class="st0" d="M199.5,10.8c-0.3-0.4-0.5-0.9-0.7-1.6c-0.2-0.7-0.3-1.4-0.3-2.2c0-1.4,0.3-2.4,0.9-3c0.6-0.6,1.4-0.9,2.5-0.9
		h23.6c0.3,0.4,0.5,0.9,0.7,1.6c0.2,0.7,0.3,1.4,0.3,2.2c0,1.4-0.3,2.4-0.9,3c-0.6,0.6-1.5,0.9-2.5,0.9h-6v25
		c-0.4,0.1-1,0.2-1.9,0.3c-0.8,0.1-1.7,0.2-2.5,0.2c-0.8,0-1.6-0.1-2.2-0.2c-0.6-0.1-1.2-0.4-1.6-0.7c-0.4-0.3-0.8-0.8-1-1.4
		c-0.2-0.6-0.3-1.3-0.3-2.3v-21H199.5z"/>
</g>
</svg>
